HIERARCHY
ROOT Hips
{
	OFFSET 0.00000 0.00000 0.00000
	CHANNELS 6 Xposition Yposition Zposition Zrotation Yrotation Xrotation 
	JOINT LHipJoint
	{
		OFFSET 0 0 0
		CHANNELS 3 Zrotation Yrotation Xrotation
		JOINT LeftUpLeg
		{
			OFFSET 1.28366 -1.58472 0.87544
			CHANNELS 3 Zrotation Yrotation Xrotation
			JOINT LeftLeg
			{
				OFFSET 2.18587 -6.00562 0.00000
				CHANNELS 3 Zrotation Yrotation Xrotation
				JOINT LeftFoot
				{
					OFFSET 2.39085 -6.56880 0.00000
					CHANNELS 3 Zrotation Yrotation Xrotation
					JOINT LeftToeBase
					{
						OFFSET 0.12003 -0.32979 2.03101
						CHANNELS 3 Zrotation Yrotation Xrotation
						End Site
						{
							OFFSET 0.00000 -0.00000 1.04074
						}
					}
				}
			}
		}
	}
	JOINT RHipJoint
	{
		OFFSET 0 0 0
		CHANNELS 3 Zrotation Yrotation Xrotation
		JOINT RightUpLeg
		{
			OFFSET -1.21795 -1.58472 0.87544
			CHANNELS 3 Zrotation Yrotation Xrotation
			JOINT RightLeg
			{
				OFFSET -2.22714 -6.11902 0.00000
				CHANNELS 3 Zrotation Yrotation Xrotation
				JOINT RightFoot
				{
					OFFSET -2.40306 -6.60235 0.00000
					CHANNELS 3 Zrotation Yrotation Xrotation
					JOINT RightToeBase
					{
						OFFSET -0.15519 -0.42640 1.91430
						CHANNELS 3 Zrotation Yrotation Xrotation
						End Site
						{
							OFFSET -0.00000 -0.00000 0.99082
						}
					}
				}
			}
		}
	}
	JOINT LowerBack
	{
		OFFSET 0 0 0
		CHANNELS 3 Zrotation Yrotation Xrotation
		JOINT Spine
		{
			OFFSET 0.01180 1.76430 -0.06387
			CHANNELS 3 Zrotation Yrotation Xrotation
			JOINT Spine1
			{
				OFFSET -0.00388 1.74651 0.09536
				CHANNELS 3 Zrotation Yrotation Xrotation
				JOINT Neck
				{
					OFFSET 0 0 0
					CHANNELS 3 Zrotation Yrotation Xrotation
					JOINT Neck1
					{
						OFFSET 0.04111 1.46174 0.14397
						CHANNELS 3 Zrotation Yrotation Xrotation
						JOINT Head
						{
							OFFSET 0.00502 1.44580 -0.31711
							CHANNELS 3 Zrotation Yrotation Xrotation
							End Site
							{
								OFFSET -0.00395 1.49251 -0.12327
							}
						}
					}
				}
				JOINT LeftShoulder
				{
					OFFSET 0 0 0
					CHANNELS 3 Zrotation Yrotation Xrotation
					JOINT LeftArm
					{
						OFFSET 2.70917 1.34870 -0.15417
						CHANNELS 3 Zrotation Yrotation Xrotation
						JOINT LeftForeArm
						{
							OFFSET 4.46610 -0.00000 -0.00000
							CHANNELS 3 Zrotation Yrotation Xrotation
							JOINT LeftHand
							{
								OFFSET 3.41414 -0.00000 0.00000
								CHANNELS 3 Zrotation Yrotation Xrotation
								JOINT LeftFingerBase
								{
									OFFSET 0 0 0
									CHANNELS 3 Zrotation Yrotation Xrotation
									JOINT LeftHandIndex1
									{
										OFFSET 0.32830 -0.00000 0.00000
										CHANNELS 3 Zrotation Yrotation Xrotation
										End Site
										{
											OFFSET 0.26468 -0.00000 0.00000
										}
									}
								}
								JOINT LThumb
								{
									OFFSET 0 0 0
									CHANNELS 3 Zrotation Yrotation Xrotation
									End Site
									{
										OFFSET 0.26872 -0.00000 0.26872
									}
								}
							}
						}
					}
				}
				JOINT RightShoulder
				{
					OFFSET 0 0 0
					CHANNELS 3 Zrotation Yrotation Xrotation
					JOINT RightArm
					{
						OFFSET -3.06316 1.13725 -0.10883
						CHANNELS 3 Zrotation Yrotation Xrotation
						JOINT RightForeArm
						{
							OFFSET -4.40431 -0.00000 0.00000
							CHANNELS 3 Zrotation Yrotation Xrotation
							JOINT RightHand
							{
								OFFSET -3.04688 -0.00000 0.00000
								CHANNELS 3 Zrotation Yrotation Xrotation
								JOINT RightFingerBase
								{
									OFFSET 0 0 0
									CHANNELS 3 Zrotation Yrotation Xrotation
									JOINT RightHandIndex1
									{
										OFFSET -0.50049 -0.00000 0.00000
										CHANNELS 3 Zrotation Yrotation Xrotation
										End Site
										{
											OFFSET -0.40351 -0.00000 0.00000
										}
									}
								}
								JOINT RThumb
								{
									OFFSET 0 0 0
									CHANNELS 3 Zrotation Yrotation Xrotation
									End Site
									{
										OFFSET -0.40967 -0.00000 0.40967
									}
								}
							}
						}
					}
				}
			}
		}
	}
}
MOTION
Frames: 15
Frame Time: .0083333
-0.0988 14.7969 2.9863 -179.1540 -106.6460 902.9870 0.0000 0.0000 0.0000 -13.2838 8.4938 -39.1076 9.7922 17.2913 58.7916 -1.4139 -21.1309 2.3981 0.3821 -3.9699 -10.9920 0.0000 0.0000 0.0000 25.3771 -13.3732 -34.3590 -10.8606 -17.8662 62.3281 0.3943 -11.1149 -2.7946 -11.4155 -18.1325 64.1238 0.9530 5.6583 7.2642 -1.4486 7.5525 -6.8916 -3.3305 3.4590 -11.1455 12.5612 14.0429 -10.6930 0.3672 16.8637 17.9601 0.0712 8.8572 8.3926 0.0000 0.0000 0.0000 -12.5975 -16.1686 27.1471 16.4489 -26.1255 -3.8415 -0.0000 -0.0000 0.3405 2.1381 7.2723 0.2708 -7.1250 0.0000 -0.0000 -20.5886 36.5199 4.5334 0.0000 0.0000 0.0000 26.0758 8.3287 68.1063 -143.2422 46.0273 -103.9345 0.0000 -0.0000 -40.2461 3.6130 5.9485 0.3749 7.1250 -0.0000 -0.0000 22.0557 -23.9752 12.0762
-0.0876 14.7639 3.1158 -178.5330 -106.6060 902.0270 0.0000 0.0000 0.0000 -12.9011 8.8674 -39.4174 10.1852 17.5127 60.1057 -1.7103 -22.6571 4.9505 0.3673 -3.8928 -10.7752 0.0000 0.0000 0.0000 24.9358 -12.3005 -33.0104 -10.7136 -17.7920 61.8478 0.6055 -13.6805 -3.8228 -11.5536 -18.1955 64.5665 1.0257 5.7156 7.5086 -1.5696 7.6309 -6.7860 -3.5318 3.4859 -11.1425 12.5925 13.9763 -10.5953 0.5493 16.7405 18.1201 0.1071 8.8207 8.4109 -0.0000 -0.0000 0.0000 -12.6052 -16.4448 27.0629 16.3818 -26.0356 -3.8120 -0.0000 -0.0000 0.5996 2.3557 7.1602 0.2938 -7.1250 0.0000 -0.0000 -20.3846 36.4287 4.5318 -0.0000 -0.0000 0.0000 26.3805 8.8216 68.5532 -142.6720 46.4047 -103.5228 0.0000 -0.0000 -39.2422 3.5827 5.9937 0.3746 7.1250 -0.0000 -0.0000 22.0270 -23.9337 12.0810
-0.0776 14.7329 3.2457 -177.9170 -106.5620 901.0600 0.0000 0.0000 0.0000 -12.4192 9.1084 -39.5279 10.5130 17.6884 61.1895 -1.9099 -23.6639 6.8452 0.3739 -3.9273 -10.8723 0.0000 0.0000 0.0000 24.4752 -11.3951 -31.7988 -10.6042 -17.7359 61.4894 0.8432 -16.0567 -4.6179 -11.6456 -18.2368 64.8611 1.0751 5.7618 7.7535 -1.6721 7.6931 -6.6772 -3.6985 3.5077 -11.1424 12.6226 13.9214 -10.4834 0.7431 16.6326 18.2500 0.1468 8.7923 8.4163 0.0000 0.0000 0.0000 -12.6313 -16.6734 26.8973 16.3126 -25.9427 -3.7817 -0.0000 -0.0000 0.9183 2.6346 7.0468 0.3234 -7.1250 0.0000 -0.0000 -20.1317 36.3407 4.5154 0.0000 0.0000 0.0000 26.6730 9.3325 68.9724 -142.0885 46.7827 -103.0990 0.0000 -0.0000 -38.2952 3.5491 6.0255 0.3730 7.1250 -0.0000 -0.0000 21.9983 -23.9047 12.0789
-0.0687 14.7048 3.3766 -177.3800 -106.5250 900.1680 0.0000 0.0000 0.0000 -11.8316 9.1858 -39.4340 10.7715 17.8215 62.0373 -2.0015 -24.1521 7.3878 0.4428 -4.2697 -11.8366 0.0000 0.0000 0.0000 24.0300 -10.6727 -30.7617 -10.5222 -17.6932 61.2199 1.1016 -18.2570 -5.2798 -11.7091 -18.2650 65.0638 1.1244 5.7899 7.9953 -1.7490 7.7335 -6.5699 -3.8345 3.5200 -11.1468 12.6422 13.8787 -10.3687 0.9502 16.5410 18.3629 0.1933 8.7720 8.4145 -0.0000 -0.0000 0.0000 -12.6791 -16.8513 26.6581 16.2294 -25.8308 -3.7454 -0.0000 -0.0000 1.3070 2.9408 6.9154 0.3544 -7.1250 0.0000 -0.0000 -19.8524 36.2361 4.4998 -0.0000 -0.0000 0.0000 26.9559 9.8567 69.3771 -141.4915 47.1610 -102.6625 0.0000 -0.0000 -37.2844 3.4687 6.0591 0.3666 7.1250 -0.0000 -0.0000 21.9372 -23.8748 12.0564
-0.0607 14.6812 3.5092 -176.9670 -106.4910 899.4130 0.0000 0.0000 0.0000 -11.1501 9.0958 -39.1461 10.9545 17.9127 62.6337 -1.9717 -24.1088 6.0344 0.6417 -5.1249 -14.2650 0.0000 0.0000 0.0000 23.6097 -10.1214 -29.8950 -10.4653 -17.6633 61.0325 1.3744 -20.2873 -5.8181 -11.7361 -18.2769 65.1500 1.1918 5.8006 8.2234 -1.7996 7.7552 -6.4703 -3.9486 3.5231 -11.1538 12.6379 13.8466 -10.2721 1.1802 16.4608 18.4693 0.2527 8.7574 8.4100 -0.0000 -0.0000 0.0000 -12.7393 -16.9720 26.3757 16.1350 -25.7034 -3.7043 -0.0000 -0.0000 1.7331 3.2199 6.7773 0.3804 -7.1250 0.0000 -0.0000 -19.5938 36.1234 4.4922 -0.0000 -0.0000 0.0000 27.2371 10.3694 69.7551 -140.8771 47.5416 -102.2106 0.0000 -0.0000 -36.1421 3.3994 6.1284 0.3633 7.1250 -0.0000 -0.0000 21.8776 -23.8115 12.0534
-0.0534 14.6637 3.6437 -176.7160 -106.4590 898.8480 0.0000 0.0000 0.0000 -10.3859 8.8403 -38.6807 11.0550 17.9619 62.9601 -1.7477 -23.2745 2.9654 0.9870 -6.3234 -17.7255 0.0000 0.0000 0.0000 23.2151 -9.6993 -29.1788 -10.4311 -17.6453 60.9198 1.6345 -22.0222 -6.1958 -11.7365 -18.2770 65.1512 1.2987 5.7904 8.4243 -1.8290 7.7561 -6.3879 -4.0559 3.5138 -11.1628 12.6162 13.8247 -10.1903 1.4296 16.3916 18.5722 0.3229 8.7485 8.4045 0.0000 -0.0000 0.0000 -12.7978 -17.0045 26.0853 16.0464 -25.5835 -3.6660 -0.0000 -0.0000 2.1570 3.4420 6.6367 0.3983 -7.1250 0.0000 -0.0000 -19.3806 36.0041 4.4981 0.0000 -0.0000 0.0000 27.5366 10.8640 70.1222 -140.2537 47.9188 -101.7493 0.0000 -0.0000 -34.8746 3.3258 6.2234 0.3609 7.1250 -0.0000 -0.0000 21.8108 -23.7243 12.0586
-0.0469 14.6528 3.7804 -176.6240 -106.4240 898.4900 0.0000 0.0000 0.0000 -9.5561 8.4241 -38.0617 11.0648 17.9666 62.9918 -1.2993 -21.3277 -0.8442 1.3709 -7.4100 -20.9358 0.0000 0.0000 0.0000 22.8350 -9.3479 -28.5918 -10.4154 -17.6369 60.8681 1.8697 -23.4551 -6.5171 -11.7080 -18.2645 65.0603 1.4492 5.7616 8.5744 -1.8438 7.7388 -6.3263 -4.1638 3.4935 -11.1623 12.5874 13.8110 -10.1283 1.6856 16.3305 18.6753 0.3987 8.7435 8.4018 0.0000 0.0000 0.0000 -12.8423 -16.9447 25.8136 15.9701 -25.4800 -3.6331 -0.0000 -0.0000 2.5270 3.5813 6.4995 0.4059 -7.1250 0.0000 -0.0000 -19.2354 35.8834 4.5208 0.0000 0.0000 0.0000 27.8658 11.3253 70.4749 -139.6371 48.2834 -101.2903 0.0000 -0.0000 -33.5862 3.2966 6.3469 0.3648 7.1250 -0.0000 -0.0000 21.7699 -23.6099 12.0952
-0.0418 14.6484 3.9193 -176.6470 -106.3750 898.3140 0.0000 0.0000 0.0000 -8.6896 7.8649 -37.3126 10.9763 17.9235 62.7045 -0.7647 -18.4142 -4.2443 1.6040 -7.9873 -22.6754 0.0000 0.0000 0.0000 22.4522 -9.0149 -28.1176 -10.4115 -17.6349 60.8551 2.0745 -24.6115 -6.8265 -11.6607 -18.2435 64.9091 1.6364 5.7187 8.6604 -1.8546 7.7072 -6.2928 -4.2793 3.4640 -11.1518 12.5524 13.8024 -10.0802 1.9427 16.2753 18.7701 0.4772 8.7406 8.3985 0.0000 0.0000 0.0000 -12.8697 -16.7928 25.5707 15.9083 -25.3961 -3.6065 -0.0000 -0.0000 2.8077 3.6319 6.4045 0.4057 -7.1250 0.0000 -0.0000 -19.1717 35.7967 4.5473 0.0000 0.0000 0.0000 28.2375 11.7426 70.8310 -139.0483 48.6238 -100.8496 0.0000 -0.0000 -32.3609 3.2780 6.4645 0.3695 7.1250 -0.0000 -0.0000 21.7376 -23.5008 12.1340
-0.0379 14.6497 4.0604 -176.6880 -106.3020 898.2460 0.0000 0.0000 0.0000 -7.8297 7.1720 -36.4628 10.7842 17.8278 62.0787 -0.3171 -15.1337 -6.6781 1.6158 -8.0152 -22.7603 0.0000 0.0000 0.0000 22.0357 -8.6587 -27.7526 -10.4147 -17.6366 60.8657 2.2418 -25.5037 -7.0819 -11.6077 -18.2199 64.7399 1.8253 5.6744 8.6486 -1.8661 7.6723 -6.2859 -4.3856 3.4338 -11.1127 12.5284 13.7940 -10.0374 2.1666 16.2245 18.8528 0.5444 8.7374 8.3962 0.0000 -0.0000 0.0000 -12.8904 -16.5673 25.3727 15.8596 -25.3299 -3.5857 -0.0000 -0.0000 2.9880 3.6334 6.3582 0.4029 -7.1250 0.0000 -0.0000 -19.1592 35.7531 4.5655 0.0000 -0.0000 0.0000 28.6353 12.0935 71.1827 -138.5164 48.9247 -100.4496 0.0000 -0.0000 -31.2788 3.2811 6.5639 0.3755 7.1250 -0.0000 -0.0000 21.7233 -23.4083 12.1754
-0.0355 14.6550 4.2038 -176.6880 -106.1980 898.2310 0.0000 0.0000 0.0000 -7.0123 6.3737 -35.5348 10.4877 17.6751 61.1063 -0.0183 -12.0852 -8.2224 1.4523 -7.6176 -21.5584 0.0000 0.0000 0.0000 21.5673 -8.2561 -27.4834 -10.4236 -17.6413 60.8951 2.3695 -26.1586 -7.2556 -11.5584 -18.1977 64.5820 2.0024 5.6376 8.5298 -1.8845 7.6425 -6.3051 -4.4827 3.4082 -11.0391 12.5198 13.7824 -10.0021 2.3465 16.1747 18.9276 0.5963 8.7313 8.3978 0.0000 0.0000 0.0000 -12.9102 -16.2937 25.2169 15.8142 -25.2681 -3.5663 -0.0000 -0.0000 3.0800 3.6170 6.3588 0.4011 -7.1250 0.0000 -0.0000 -19.1724 35.7521 4.5695 0.0000 0.0000 0.0000 29.0494 12.3665 71.5291 -138.0577 49.1794 -100.1032 0.0000 -0.0000 -30.3525 3.2931 6.6548 0.3820 7.1250 -0.0000 -0.0000 21.7166 -23.3236 12.2172
-0.0344 14.6623 4.3495 -176.5730 -106.0550 898.1950 0.0000 0.0000 0.0000 -6.2768 5.4981 -34.5433 10.0927 17.4616 59.7976 0.1510 -9.6267 -9.1070 1.2070 -6.9699 -19.6261 0.0000 0.0000 0.0000 21.0293 -7.7991 -27.3029 -10.4406 -17.6503 60.9510 2.4654 -26.6343 -7.3972 -11.5106 -18.1760 64.4288 2.1430 5.6194 8.3014 -1.9101 7.6289 -6.3428 -4.5581 3.3948 -10.9234 12.5250 13.7652 -9.9809 2.4702 16.1246 18.9978 0.6297 8.7207 8.4062 -0.0000 0.0000 0.0000 -12.9401 -15.9980 25.1070 15.7643 -25.2000 -3.5450 -0.0000 -0.0000 3.1203 3.6333 6.3711 0.4037 -7.1250 0.0000 -0.0000 -19.1625 35.7654 4.5603 -0.0000 0.0000 0.0000 29.4535 12.5450 71.8584 -137.6865 49.3824 -99.8218 0.0000 -0.0000 -29.5289 3.2824 6.7371 0.3855 7.1250 -0.0000 -0.0000 21.6957 -23.2471 12.2453
-0.0342 14.6692 4.4977 -176.2880 -105.8740 898.0700 0.0000 0.0000 0.0000 -5.6605 4.5778 -33.4923 9.6134 17.1867 58.1884 0.2346 -7.7962 -9.5227 0.9815 -6.3064 -17.6760 0.0000 0.0000 0.0000 20.4095 -7.2942 -27.2082 -10.4703 -17.6660 61.0491 2.5386 -26.9852 -7.5474 -11.4616 -18.1536 64.2716 2.2326 5.6237 7.9780 -1.9404 7.6352 -6.3935 -4.6031 3.3964 -10.7697 12.5371 13.7419 -9.9724 2.5326 16.0763 19.0663 0.6442 8.7057 8.4222 -0.0000 -0.0000 0.0000 -12.9878 -15.6903 25.0537 15.7001 -25.1124 -3.5177 -0.0000 -0.0000 3.1687 3.7226 6.3328 0.4112 -7.1250 0.0000 -0.0000 -19.0816 35.7341 4.5545 -0.0000 -0.0000 0.0000 29.8208 12.6373 72.1624 -137.3977 49.5383 -99.6023 0.0000 -0.0000 -28.7141 3.2329 6.8310 0.3849 7.1250 -0.0000 -0.0000 21.6464 -23.1603 12.2602
-0.0346 14.6741 4.6485 -175.7850 -105.6550 897.7880 0.0000 0.0000 0.0000 -5.2010 3.6576 -32.3932 9.0742 16.8552 56.3463 0.2688 -6.5835 -9.6574 0.8526 -5.8889 -16.4625 0.0000 0.0000 0.0000 19.7014 -6.7677 -27.1985 -10.5183 -17.6912 61.2071 2.6006 -27.2716 -7.7299 -11.4083 -18.1292 64.1007 2.2639 5.6553 7.5800 -1.9748 7.6678 -6.4497 -4.6154 3.4164 -10.5823 12.5528 13.7102 -9.9826 2.5361 16.0258 19.1376 0.6408 8.6845 8.4474 -0.0000 -0.0000 0.0000 -13.0534 -15.3869 25.0775 15.6271 -25.0124 -3.4868 -0.0000 -0.0000 3.2391 3.8829 6.2344 0.4223 -7.1250 0.0000 -0.0000 -18.9298 35.6508 4.5554 -0.0000 -0.0000 0.0000 30.1281 12.6377 72.4300 -137.1799 49.6547 -99.4365 0.0000 -0.0000 -27.8140 3.1215 6.9406 0.3776 7.1250 -0.0000 -0.0000 21.5522 -23.0596 12.2528
-0.0349 14.6744 4.8021 -175.0480 -105.4130 897.3120 0.0000 0.0000 0.0000 -4.9223 2.7781 -31.2579 8.5088 16.4810 54.3754 0.2770 -6.0041 -9.6448 0.8170 -5.7677 -16.1119 0.0000 0.0000 0.0000 18.9168 -6.2547 -27.2676 -10.5904 -17.7287 61.4441 2.6623 -27.5492 -7.9510 -11.3558 -18.1049 63.9318 2.2367 5.7082 7.1366 -2.0083 7.7205 -6.5042 -4.5916 3.4515 -10.3723 12.5600 13.6737 -10.0198 2.4902 15.9771 19.2242 0.6259 8.6593 8.4859 -0.0000 -0.0000 0.0000 -13.1398 -15.0931 25.1677 15.5421 -24.8958 -3.4509 -0.0000 -0.0000 3.3698 4.0903 6.0504 0.4319 -7.1250 0.0000 -0.0000 -18.7201 35.4882 4.5784 -0.0000 -0.0000 0.0000 30.3591 12.5694 72.6565 -137.0126 49.7436 -99.3089 0.0000 -0.0000 -26.7821 2.9489 7.0784 0.3637 7.1250 -0.0000 -0.0000 21.4116 -22.9333 12.2282
-0.0345 14.6692 4.9581 -174.0800 -105.1530 896.6240 0.0000 0.0000 0.0000 -4.8501 2.0048 -30.1256 7.9559 16.0867 52.4036 0.2775 -5.8938 -9.6299 0.8802 -5.9810 -16.7294 0.0000 0.0000 0.0000 18.0702 -5.7744 -27.4234 -10.6919 -17.7810 61.7769 2.7302 -27.8498 -8.1936 -11.2984 -18.0780 63.7468 2.1602 5.7805 6.6749 -2.0401 7.7932 -6.5532 -4.5387 3.5005 -10.1506 12.5477 13.6324 -10.0910 2.4134 15.9277 19.3247 0.6067 8.6297 8.5356 0.0000 0.0000 0.0000 -13.2376 -14.8134 25.3303 15.4539 -24.7746 -3.4139 -0.0000 -0.0000 3.5343 4.3043 5.8101 0.4365 -7.1250 0.0000 -0.0000 -18.4930 35.2718 4.6203 0.0000 0.0000 0.0000 30.5051 12.4482 72.8372 -136.8771 49.8151 -99.2054 0.0000 -0.0000 -25.6490 2.7370 7.2300 0.3447 7.1250 -0.0000 -0.0000 21.2423 -22.7941 12.1905
